<svg width="12" height="19" viewBox="0 0 12 19" fill="none" xmlns="http://www.w3.org/2000/svg">
<path d="M0.319147 9.74151L9.21944 17.7839C9.42529 17.9701 9.70009 18.0726 9.9931 18.0726C10.2861 18.0726 10.5609 17.9701 10.7668 17.7839L11.4222 17.1918C11.8487 16.8059 11.8487 16.1788 11.4222 15.7936L3.9484 9.04006L11.4305 2.27904C11.6363 2.09288 11.75 1.84472 11.75 1.58009C11.75 1.31518 11.6363 1.06701 11.4305 0.880703L10.775 0.288719C10.569 0.102558 10.2944 0 10.0014 0C9.70838 0 9.43359 0.102558 9.22773 0.288719L0.319147 8.33847C0.112807 8.52522 -0.000525475 8.77456 0.000124931 9.03962C-0.000525475 9.30571 0.112807 9.55491 0.319147 9.74151Z" fill="white"/>
</svg>
