<svg width="1114" height="182" viewBox="0 0 1114 182" fill="none" xmlns="http://www.w3.org/2000/svg">
<circle cx="10" cy="72" r="8" fill="white" stroke="#D2D2D2" stroke-width="4"/>
<path d="M20 76.9178C226.61 165.82 292.569 113.96 299.723 76.9178C304.779 51.9452 339.831 2 439.584 2C564.275 2 568.715 200.532 714.497 167.235C860.278 133.939 806.258 -3.82696 912.079 17.816C996.735 35.1303 1049.97 92.7338 1066 119.371" stroke="black" stroke-opacity="0.3" stroke-width="4" stroke-dasharray="10 10"/>
<g opacity="0.6" clip-path="url(#clip0)">
<path d="M1066.77 133.55C1066.38 133.292 1065.85 133.394 1065.59 133.778L1063.05 137.6C1062.92 137.789 1062.88 138.021 1062.92 138.245C1062.94 138.343 1062.98 138.436 1063.03 138.522C1063.09 138.629 1063.18 138.72 1063.28 138.79L1076.75 147.713L1064.23 153.811C1063.98 153.931 1063.81 154.161 1063.76 154.43C1063.64 155.254 1063.8 156.094 1064.21 156.819C1064.33 157.014 1064.47 157.194 1064.64 157.354C1065.52 158.206 1066.91 158.44 1068.78 158.033L1086.33 154.054L1096.82 161.012C1099.91 163.06 1103.52 162.88 1105.03 160.595C1105.8 159.357 1105.89 157.819 1105.28 156.497C1104.65 155.002 1103.58 153.735 1102.21 152.864L1090.08 144.85L1087.43 129.887C1087.07 128.016 1086.32 126.82 1085.19 126.348C1084.18 125.995 1083.06 126.126 1082.15 126.703C1081.92 126.853 1081.78 127.101 1081.76 127.374L1081.14 138.923L1076.09 135.613L1073.3 126.591C1073.19 126.223 1072.84 125.978 1072.45 125.991L1067.76 126.186C1067.51 126.199 1067.28 126.317 1067.13 126.512C1066.97 126.706 1066.91 126.957 1066.96 127.201L1068.1 134.442L1066.77 133.55ZM1083.44 127.985C1083.77 127.838 1084.15 127.822 1084.5 127.941C1085.06 128.175 1085.48 128.966 1085.72 130.221L1088.1 143.539L1082.81 140.033L1083.44 127.985ZM1068.79 127.857L1071.84 127.747L1074.57 136.403C1074.63 136.59 1074.75 136.751 1074.91 136.861L1101.24 154.314C1102.32 154.992 1103.16 155.98 1103.66 157.145C1104.05 157.94 1104.03 158.874 1103.6 159.647C1102.65 161.072 1099.98 161.041 1097.77 159.575L1088.63 153.537L1090.47 153.122C1090.94 153.013 1091.23 152.542 1091.12 152.071C1091.01 151.6 1090.54 151.307 1090.07 151.417L1068.38 156.366C1067.14 156.63 1066.26 156.555 1065.82 156.136C1065.57 155.863 1065.44 155.506 1065.44 155.137L1081.77 147.177C1082.2 146.968 1082.38 146.45 1082.17 146.021C1081.96 145.592 1081.44 145.414 1081.01 145.623L1078.51 146.837L1064.93 137.822L1066.5 135.44L1068.74 136.919C1069.02 137.113 1069.39 137.124 1069.68 136.946C1069.97 136.768 1070.13 136.435 1070.08 136.097L1068.79 127.857Z" fill="#919191"/>
</g>
<defs>
<clipPath id="clip0">
<rect width="49.2641" height="49.2641" fill="white" transform="translate(1087.61 113.934) rotate(58.5674)"/>
</clipPath>
</defs>
</svg>
