<svg width="13" height="13" viewBox="0 0 13 13" fill="none" xmlns="http://www.w3.org/2000/svg">
<path d="M12.2491 0.0495667C12.1558 -0.0132217 12.0349 -0.0165686 11.9385 0.0407308L0.142198 7.03996C0.0420574 7.0994 -0.0128328 7.21279 0.00256324 7.32806C0.0176915 7.4432 0.100562 7.53838 0.212485 7.56971L3.20989 8.40417C3.30093 8.42934 3.39852 8.40899 3.47176 8.34928L8.26032 4.43752L4.91992 8.70111C4.87962 8.75225 4.85807 8.81544 4.85807 8.88037V12.7095C4.85807 12.8388 4.94321 12.9524 5.06732 12.9884C5.09423 12.9964 5.12154 13 5.14858 13C5.24605 13 5.33936 12.951 5.39358 12.8656L7.47901 9.59233L10.5277 10.4408C10.6077 10.4632 10.6937 10.4498 10.7638 10.4046C10.8336 10.3592 10.8807 10.2861 10.8933 10.2039L12.374 0.333788C12.3907 0.222938 12.3421 0.112221 12.2491 0.0495667Z" fill="white"/>
</svg>
