<svg width="19" height="12" viewBox="0 0 19 12" fill="none" xmlns="http://www.w3.org/2000/svg">
<path d="M10.58 11.4309L18.6224 2.53056C18.8086 2.32471 18.9111 2.04991 18.9111 1.7569C18.9111 1.4639 18.8086 1.1891 18.6224 0.983249L18.0303 0.327804C17.6444 -0.0986987 17.0173 -0.0986988 16.6321 0.327804L9.87856 7.8016L3.11754 0.31951C2.93138 0.113657 2.68322 -7.09345e-07 2.41859 -7.20912e-07C2.15368 -7.32492e-07 1.90551 0.113657 1.7192 0.31951L1.12722 0.974955C0.941058 1.18097 0.838501 1.4556 0.838501 1.74861C0.838501 2.04162 0.941058 2.31641 1.12722 2.52227L9.17697 11.4309C9.36372 11.6372 9.61306 11.7505 9.87812 11.7499C10.1442 11.7505 10.3934 11.6372 10.58 11.4309Z" fill="white"/>
</svg>
