<svg width="4" height="6" viewBox="0 0 4 6" fill="none" xmlns="http://www.w3.org/2000/svg">
<path d="M3.8873 2.44127L1.3742 0.0846033C1.31607 0.0300525 1.23848 0 1.15575 0C1.07302 0 0.995424 0.0300525 0.937299 0.0846033L0.752227 0.258115C0.631799 0.371178 0.631799 0.554937 0.752227 0.667828L2.86254 2.64681L0.749885 4.62799C0.691761 4.68254 0.659668 4.75526 0.659668 4.83281C0.659668 4.91044 0.691761 4.98316 0.749885 5.03775L0.934958 5.21122C0.993128 5.26577 1.07067 5.29582 1.15341 5.29582C1.23614 5.29582 1.31373 5.26577 1.37186 5.21122L3.8873 2.8524C3.94556 2.79768 3.97756 2.72461 3.97738 2.64694C3.97756 2.56897 3.94556 2.49595 3.8873 2.44127Z" fill="#040404"/>
</svg>
