<svg width="4" height="6" viewBox="0 0 4 6" fill="none" xmlns="http://www.w3.org/2000/svg">
<path d="M0.0902418 2.85463L2.60334 5.2113C2.66146 5.26585 2.73906 5.2959 2.82179 5.2959C2.90452 5.2959 2.98211 5.26585 3.04024 5.2113L3.22531 5.03778C3.34574 4.92472 3.34574 4.74096 3.22531 4.62807L1.115 2.64909L3.22765 0.667905C3.28578 0.613354 3.31787 0.540634 3.31787 0.463091C3.31787 0.385463 3.28578 0.312743 3.22765 0.258149L3.04258 0.08468C2.98441 0.0301292 2.90686 7.69154e-05 2.82413 7.69154e-05C2.7414 7.69154e-05 2.66381 0.0301292 2.60568 0.08468L0.0902418 2.4435C0.0319792 2.49822 -2.1522e-05 2.57128 0.000162127 2.64896C-2.1522e-05 2.72693 0.0319792 2.79995 0.0902418 2.85463Z" fill="#040404"/>
</svg>
