<svg width="1103" height="207" viewBox="0 0 1103 207" fill="none" xmlns="http://www.w3.org/2000/svg">
<g opacity="0.5" clip-path="url(#clip0)">
<g style="mix-blend-mode:darken">
<path d="M1071.63 16.7811L1056.77 44.2857C1055.77 46.1304 1056.47 48.4428 1058.31 49.4386L1074.66 58.2766C1076.51 59.2736 1078.82 58.5818 1079.82 56.7393L1094.68 29.2347C1095.67 27.3928 1094.99 25.0791 1093.14 24.0817L1076.79 15.2437C1074.95 14.2483 1072.63 14.9358 1071.63 16.7811ZM1073.82 18.0765C1074.08 18.9503 1079.55 37.3017 1079.73 37.9073C1079.93 38.5787 1079.55 39.2839 1078.88 39.4842C1078.27 39.665 1059.92 45.1402 1059.05 45.4007L1073.82 18.0765ZM1075.78 55.9978L1060.35 47.659L1072.23 44.1133L1075.78 55.9978ZM1078.04 54.7005L1074.66 43.3885L1079.6 41.9133C1081.61 41.3141 1082.76 39.1918 1082.16 37.1825L1080.69 32.2381L1092 28.863L1078.04 54.7005ZM1091.85 26.2631L1079.96 29.8089L1076.42 17.9244L1091.85 26.2632L1091.85 26.2631Z" fill="#919191"/>
</g>
</g>
<path d="M21 115.01C226.82 8.22183 292.527 70.5149 299.653 115.01C304.69 145.007 339.608 205 438.979 205C563.194 205 567.617 -33.4736 712.841 6.52195C858.065 46.5175 804.251 211.999 909.667 186.002C994 165.204 1047.03 96.0121 1063 64.0156" stroke="black" stroke-opacity="0.3" stroke-width="4" stroke-dasharray="10 10"/>
<circle cx="10" cy="120" r="8" fill="white" stroke="#D2D2D2" stroke-width="4"/>
<defs>
<clipPath id="clip0">
<rect width="38.8688" height="38.8688" fill="white" transform="translate(1049.39 44.6179) rotate(-61.6125)"/>
</clipPath>
</defs>
</svg>
