<svg width="45" height="45" viewBox="0 0 45 45" fill="none" xmlns="http://www.w3.org/2000/svg">
<path d="M22.5001 0.0935059C10.0738 0.0935059 0 10.1673 0 22.5936C0 33.7386 8.11174 42.9685 18.7476 44.7558V27.2878H13.3199V21.0017H18.7476V16.3666C18.7476 10.9886 22.0323 8.05789 26.8306 8.05789C29.1287 8.05789 31.1036 8.22913 31.6769 8.30455V13.926L28.349 13.9276C25.7401 13.9276 25.2371 15.1671 25.2371 16.9867V20.9985H31.4622L30.6503 27.2846H25.2371V44.9062C36.3694 43.5512 45 34.0862 45 22.5872C45 10.1673 34.9262 0.0935059 22.5001 0.0935059Z" fill="#010002"/>
</svg>
