<svg width="80" height="51" viewBox="0 0 80 51" fill="none" xmlns="http://www.w3.org/2000/svg">
<g clip-path="url(#clip0)">
<path opacity="0.07" d="M73.6842 0H6.31579C2.73684 0 0 2.73684 0 6.31579V44.2105C0 47.7895 2.94737 50.5263 6.31579 50.5263H73.6842C77.2632 50.5263 80 47.7895 80 44.2105V6.31579C80 2.73684 77.0526 0 73.6842 0Z" fill="black"/>
<path d="M73.6844 2.10522C76.0002 2.10522 77.8949 3.99996 77.8949 6.31575V44.2105C77.8949 46.5263 76.0002 48.421 73.6844 48.421H6.316C4.00021 48.421 2.10547 46.5263 2.10547 44.2105V6.31575C2.10547 3.99996 4.00021 2.10522 6.316 2.10522H73.6844Z" fill="white"/>
<path d="M50.3157 17.4737C50.7368 15.3685 50.3157 13.8948 49.0526 12.6316C47.7894 11.1579 45.4736 10.5264 42.5263 10.5264H33.8947C33.2631 10.5264 32.8421 10.9474 32.6315 11.579L29.4736 32.8422C29.4736 33.2632 29.6842 33.6843 30.1052 33.6843H35.7894L36.6315 26.5264L40.421 21.8948L50.3157 17.4737Z" fill="#003087"/>
<path d="M50.3157 17.4736L49.8946 17.8947C48.842 23.7894 45.2631 25.8947 40.2104 25.8947H37.8946C37.2631 25.8947 36.842 26.3157 36.6315 26.9473L35.3683 35.1578L34.9473 37.2631C34.9473 37.6842 35.1578 38.1052 35.5788 38.1052H39.9999C40.6315 38.1052 41.0525 37.6842 41.0525 37.2631V37.0526L41.8946 31.9999V31.7894C41.8946 31.3684 42.5262 30.9473 42.9473 30.9473H43.5788C47.9999 30.9473 51.3683 29.2631 52.2104 24.2105C52.6315 22.1052 52.4209 20.421 51.3683 19.1578C51.1578 18.1052 50.7367 17.6842 50.3157 17.4736Z" fill="#3086C8"/>
<path d="M49.0524 17.0527C48.8419 16.8422 48.6313 16.8422 48.4208 16.8422C48.2103 16.8422 47.9998 16.8422 47.7892 16.6317C47.1577 16.4211 46.3156 16.4211 45.4735 16.4211H39.1577C38.9471 16.4211 38.7366 16.4211 38.7366 16.6317C38.3156 16.8422 38.105 17.0527 38.105 17.4738L36.6313 26.7369V26.9475C36.6313 26.3159 37.2629 25.8948 37.8945 25.8948H40.6313C45.8945 25.8948 49.2629 23.7896 50.3156 17.8948V17.4738C50.105 17.2632 49.684 17.0527 49.2629 17.0527H49.0524Z" fill="#012169"/>
</g>
<defs>
<clipPath id="clip0">
<rect width="80" height="50.5263" fill="white"/>
</clipPath>
</defs>
</svg>
