<svg width="80" height="51" viewBox="0 0 80 51" fill="none" xmlns="http://www.w3.org/2000/svg">
<g clip-path="url(#clip0)">
<path opacity="0.07" d="M73.6842 0H6.31579C2.73684 0 0 2.75132 0 6.34921V44.4444C0 48.0423 2.94737 50.7937 6.31579 50.7937H73.6842C77.2632 50.7937 80 48.0423 80 44.4444V6.34921C80 2.75132 77.0526 0 73.6842 0Z" fill="black"/>
<path d="M73.6844 2.11646C76.0002 2.11646 77.8949 4.02122 77.8949 6.34926V44.4445C77.8949 46.7725 76.0002 48.6773 73.6844 48.6773H6.316C4.00021 48.6773 2.10547 46.7725 2.10547 44.4445V6.34926C2.10547 4.02122 4.00021 2.11646 6.316 2.11646H73.6844Z" fill="white"/>
<path d="M59.579 21.3756H58.9474C58.1053 23.492 57.4737 24.5502 56.8422 27.7248H60.8422C60.2106 24.5502 60.2106 23.0687 59.579 21.3756ZM65.6843 33.8624H62.1053C61.8948 33.8624 61.8948 33.8624 61.6843 33.6507L61.2632 31.746L61.0527 31.3227H56.0001C55.7895 31.3227 55.579 31.3227 55.579 31.746L54.9474 33.6507C54.9474 33.8624 54.7369 33.8624 54.7369 33.8624H50.3158L50.7369 32.8042L56.8422 18.4126C56.8422 17.3544 57.4737 16.9312 58.5264 16.9312H61.6843C61.8948 16.9312 62.1053 16.9312 62.1053 17.3544L65.0527 31.111C65.2632 31.9576 65.4737 32.5925 65.4737 33.4391C65.6843 33.6507 65.6843 33.6507 65.6843 33.8624ZM37.4737 33.2274L38.3158 29.4179C38.5264 29.4179 38.7369 29.6296 38.7369 29.6296C40.2106 30.2645 41.6843 30.6878 43.1579 30.4761C43.579 30.4761 44.2106 30.2645 44.6316 30.0528C45.6843 29.6296 45.6843 28.5714 44.8422 27.7248C44.4211 27.3015 43.7895 27.0899 43.1579 26.6666C42.3158 26.2433 41.4737 25.82 40.8422 25.1851C38.3158 23.0687 39.1579 20.1058 40.6316 18.6243C41.8948 17.7777 42.5264 16.9312 44.2106 16.9312C46.7369 16.9312 49.4737 16.9312 50.7369 17.3544H50.9474C50.7369 18.6243 50.5264 19.6825 50.1053 20.9523C49.0527 20.529 48 20.1058 46.9474 20.1058C46.3158 20.1058 45.6843 20.1058 45.0527 20.3174C44.6316 20.3174 44.4211 20.529 44.2106 20.7407C43.7895 21.164 43.7895 21.7989 44.2106 22.2222L45.2632 23.0687C46.1053 23.492 46.9474 23.9153 47.579 24.3386C48.6316 24.9735 49.6843 26.0317 49.8948 27.3015C50.3158 29.2063 49.6843 30.8994 48 32.1692C46.9474 33.0158 46.5264 33.4391 45.0527 33.4391C42.1053 33.4391 39.7895 33.6507 37.8948 33.0158C37.6843 33.4391 37.6843 33.4391 37.4737 33.2274ZM30.1053 33.8624C30.3158 32.3809 30.3158 32.3809 30.5264 31.746C31.579 27.0899 32.6316 22.2222 33.4737 17.5661C33.6843 17.1428 33.6843 16.9312 34.1053 16.9312H37.8948C37.4737 19.4708 37.0527 21.3756 36.4211 23.7036C35.7895 26.8782 35.1579 30.0528 34.3158 33.2274C34.3158 33.6507 34.1053 33.6507 33.6843 33.6507L30.1053 33.8624ZM10.5264 17.3544C10.5264 17.1428 10.9474 16.9312 11.1579 16.9312H18.3158C19.3685 16.9312 20.2106 17.5661 20.4211 18.6243L22.3158 27.9364C22.3158 28.1481 22.3158 28.1481 22.5264 28.3597C22.5264 28.1481 22.7369 28.1481 22.7369 28.1481L27.1579 17.3544C26.9474 17.1428 27.1579 16.9312 27.3685 16.9312H31.7895C31.7895 17.1428 31.7895 17.1428 31.579 17.3544L25.0527 32.8042C24.8422 33.2274 24.8422 33.4391 24.6316 33.6507C24.4211 33.8624 24.0001 33.6507 23.579 33.6507H20.4211C20.2106 33.6507 20.0001 33.6507 20.0001 33.2274L16.6316 20.1058C16.2106 19.6825 15.579 19.0476 14.7369 18.8359C13.4737 18.201 11.1579 17.7777 10.7369 17.7777L10.5264 17.3544Z" fill="#142688"/>
</g>
<defs>
<clipPath id="clip0">
<rect width="80" height="50.7937" fill="white"/>
</clipPath>
</defs>
</svg>
