<svg width="12" height="19" viewBox="0 0 12 19" fill="none" xmlns="http://www.w3.org/2000/svg">
<path d="M11.4309 8.33112L2.53056 0.288719C2.32471 0.102558 2.04991 0 1.7569 0C1.4639 0 1.1891 0.102558 0.983249 0.288719L0.327804 0.88085C-0.0986987 1.26669 -0.0986987 1.89379 0.327804 2.27904L7.8016 9.03257L0.319511 15.7936C0.113658 15.9797 0 16.2279 0 16.4925C0 16.7575 0.113658 17.0056 0.319511 17.1919L0.974956 17.7839C1.18097 17.9701 1.4556 18.0726 1.74861 18.0726C2.04162 18.0726 2.31641 17.9701 2.52227 17.7839L11.4309 9.73416C11.6372 9.54741 11.7505 9.29807 11.7499 9.03301C11.7505 8.76692 11.6372 8.51772 11.4309 8.33112Z" fill="white"/>
</svg>
