<svg width="80" height="51" viewBox="0 0 80 51" fill="none" xmlns="http://www.w3.org/2000/svg">
<g clip-path="url(#clip0)">
<path d="M72.394 0H7.606C7.33612 0 7.06576 0 6.79636 0.00143046C6.56892 0.00333775 6.34195 0.00572185 6.1145 0.0119205C5.61909 0.0252715 5.11938 0.0548344 4.63016 0.142569C4.13954 0.226628 3.66417 0.383315 3.21973 0.60747C2.32624 1.06192 1.6 1.78816 1.14556 2.68164C0.921 3.12626 0.764296 3.602 0.680655 4.09303C0.591967 4.58272 0.562881 5.08196 0.54953 5.5769C0.543718 5.80414 0.540222 6.03144 0.53904 6.25875C0.538086 6.52768 0.538086 6.79756 0.538086 7.06791V43.4579C0.538086 43.7283 0.538086 43.9977 0.53904 44.268C0.54047 44.495 0.543331 44.7225 0.54953 44.9499C0.562881 45.4439 0.592444 45.9436 0.680655 46.4328C0.764124 46.9238 0.920669 47.3996 1.14508 47.8442C1.3707 48.2883 1.66521 48.6938 2.01766 49.0458C2.36951 49.3984 2.77508 49.6929 3.21925 49.9184C3.6708 50.1487 4.13331 50.2951 4.63064 50.3842C5.11938 50.4715 5.61909 50.501 6.1145 50.5144C6.34195 50.5196 6.56892 50.5225 6.79636 50.5239C7.06576 50.5258 7.33612 50.5258 7.606 50.5258H72.394C72.6634 50.5258 72.9338 50.5258 73.2032 50.5239C73.4302 50.523 73.6571 50.5196 73.8855 50.5144C74.38 50.501 74.8797 50.4715 75.3699 50.3842C75.8606 50.3001 76.336 50.1431 76.7803 49.9184C77.6733 49.4633 78.3994 48.7372 78.8545 47.8442C79.0848 47.3926 79.2307 46.9301 79.3189 46.4328C79.4076 45.9436 79.4362 45.4439 79.4495 44.9499C79.4557 44.7225 79.4591 44.495 79.46 44.268C79.4619 43.9977 79.4619 43.7283 79.4619 43.4579V7.06839C79.4619 6.79803 79.4619 6.52815 79.46 6.25827C79.4591 6.03112 79.4556 5.80397 79.4495 5.5769C79.4362 5.08196 79.4076 4.58272 79.3189 4.09303C79.2358 3.60191 79.0793 3.12611 78.8545 2.68164C78.3998 1.78831 77.6736 1.06213 76.7803 0.60747C76.3358 0.383545 75.8604 0.227023 75.3699 0.143046C74.8797 0.0548344 74.38 0.0257483 73.8855 0.0123973C73.6581 0.00662175 73.4307 0.00312488 73.2032 0.00190728C72.9338 0 72.6634 0 72.394 0Z" fill="black"/>
<path d="M72.394 1.68433L73.1912 1.68576C73.4067 1.68719 73.6227 1.68957 73.8397 1.69529C74.2178 1.70578 74.6593 1.72629 75.0713 1.80019C75.4289 1.86456 75.7293 1.96231 76.0173 2.10917C76.5937 2.40221 77.0619 2.87094 77.3543 3.44761C77.5002 3.7337 77.5975 4.03219 77.6619 4.39315C77.7353 4.80035 77.7558 5.24332 77.7658 5.62334C77.772 5.83791 77.7749 6.05248 77.7754 6.27182C77.7778 6.53741 77.7778 6.80252 77.7778 7.06859V43.4586C77.7778 43.7247 77.7778 43.9898 77.7758 44.2606C77.7749 44.4752 77.772 44.6898 77.7663 44.9043C77.7558 45.2839 77.7353 45.7268 77.6609 46.1388C77.6069 46.4665 77.5032 46.7841 77.3534 47.0805C77.0603 47.6574 76.5914 48.1261 76.0145 48.419C75.7284 48.5649 75.4289 48.6626 75.0747 48.7265C74.6546 48.8014 74.194 48.8219 73.8473 48.8314C73.6294 48.8362 73.4125 48.8395 73.1898 48.8405C72.9252 48.8424 72.6591 48.8424 72.394 48.8424H7.59546C7.33321 48.8424 7.07096 48.8424 6.80394 48.8405C6.58935 48.8395 6.37477 48.8367 6.16023 48.8319C5.80548 48.8224 5.34487 48.8014 4.92813 48.727C4.59863 48.6721 4.27936 48.5676 3.98116 48.4171C3.69512 48.2718 3.43405 48.0818 3.20776 47.8544C2.98075 47.6278 2.79115 47.3666 2.64606 47.0805C2.49622 46.7824 2.39237 46.4633 2.33804 46.134C2.26365 45.7225 2.24267 45.2815 2.23313 44.9048C2.22775 44.6895 2.22457 44.4741 2.2236 44.2587L2.22217 43.626V6.9017L2.22312 6.26991C2.22411 6.0542 2.22728 5.83851 2.23266 5.62287C2.24315 5.24522 2.26365 4.80416 2.33851 4.38933C2.39295 4.06073 2.4968 3.74227 2.64654 3.44475C2.79149 3.15961 2.98031 2.89927 3.20919 2.67087C3.43603 2.44367 3.69738 2.25377 3.98354 2.10822C4.28101 1.95877 4.59928 1.85494 4.92765 1.80019C5.3401 1.72629 5.78211 1.70578 6.16071 1.69529C6.37623 1.68957 6.59223 1.68719 6.80632 1.68576L7.60595 1.68433H72.394Z" fill="white"/>
<path d="M21.284 17.0559C21.9534 16.2191 22.4074 15.0952 22.2877 13.947C21.3083 13.9957 20.1134 14.5931 19.421 15.4309C18.7997 16.148 18.25 17.3186 18.393 18.4186C19.4926 18.514 20.5911 17.8693 21.284 17.0559Z" fill="black"/>
<path d="M22.2751 18.6336C20.6778 18.5382 19.3208 19.5396 18.5583 19.5396C17.7954 19.5396 16.6277 18.6813 15.3646 18.7046C13.721 18.7285 12.1961 19.6583 11.3617 21.1364C9.64606 24.0927 10.9087 28.4795 12.5776 30.8874C13.3877 32.0795 14.3642 33.3907 15.6507 33.3435C16.8666 33.2958 17.3429 32.5568 18.8201 32.5568C20.2968 32.5568 20.7259 33.3435 22.0129 33.3197C23.347 33.2958 24.1815 32.1276 24.9916 30.9356C25.9214 29.5766 26.3014 28.2654 26.3253 28.1939C26.3014 28.17 23.7523 27.1921 23.7285 24.2596C23.7046 21.804 25.7302 20.6358 25.8255 20.5638C24.6817 18.872 22.8945 18.6813 22.2747 18.6336" fill="black"/>
<path d="M38.1943 15.3105C41.6646 15.3105 44.0816 17.7028 44.0816 21.1855C44.0816 24.6806 41.615 27.0852 38.1075 27.0852H34.2653V33.1961H31.4893V15.3105H38.1943ZM34.2653 24.7549H37.4505C39.868 24.7549 41.2431 23.4537 41.2431 21.1979C41.2431 18.9425 39.8675 17.6532 37.4629 17.6532H34.2653V24.7549Z" fill="black"/>
<path d="M44.77 29.4896C44.77 27.1966 46.5176 25.8829 49.7399 25.6846L53.1978 25.4738V24.482C53.1978 23.0325 52.2437 22.2391 50.5457 22.2391C49.1448 22.2391 48.1283 22.9576 47.9185 24.0605H45.4142C45.4891 21.7432 47.67 20.0576 50.6201 20.0576C53.7929 20.0576 55.8628 21.7184 55.8628 24.2966V33.1955H53.2975V31.0512H53.2355C52.5041 32.4516 50.8924 33.3314 49.1449 33.3314C46.5672 33.3314 44.77 31.795 44.77 29.4896ZM53.1978 28.3371V27.3329L50.1118 27.5313C48.3762 27.6429 47.4722 28.2871 47.4722 29.4147C47.4722 30.5057 48.4139 31.2124 49.8887 31.2124C51.7721 31.2124 53.1978 30.0098 53.1978 28.3371Z" fill="black"/>
<path d="M58.2219 37.9796V35.8358C58.3955 35.8601 58.8165 35.8849 59.0397 35.8849C60.2665 35.8849 60.9608 35.3652 61.3823 34.0258L61.6303 33.2329L56.9326 20.219H59.8326L63.1051 30.7787H63.167L66.439 20.219H69.2651L64.3939 33.8894C63.2781 37.0255 62.0017 38.0545 59.3 38.0545C59.0893 38.0545 58.4074 38.0297 58.2219 37.9796Z" fill="black"/>
</g>
<defs>
<clipPath id="clip0">
<rect width="80" height="50.5263" fill="white"/>
</clipPath>
</defs>
</svg>
