<svg width="45" height="45" viewBox="0 0 45 45" fill="none" xmlns="http://www.w3.org/2000/svg">
<path d="M31.9283 0H13.0718C5.86397 0 0 5.86397 0 13.0718V31.9282C0 39.136 5.86397 45 13.0718 45H31.9282C39.136 45 45 39.136 45 31.9283V13.0718C45 5.86397 39.136 0 31.9283 0ZM41.4844 31.9282C41.4844 37.1975 37.1975 41.4844 31.9283 41.4844H13.0718C7.80249 41.4844 3.51562 37.1975 3.51562 31.9283V13.0718C3.51562 7.80249 7.80249 3.51562 13.0718 3.51562H31.9282C37.1975 3.51562 41.4844 7.80249 41.4844 13.0718V31.9282Z" fill="black"/>
<path d="M22.5 10.3711C15.8121 10.3711 10.3711 15.8121 10.3711 22.5C10.3711 29.188 15.8121 34.6289 22.5 34.6289C29.188 34.6289 34.6289 29.188 34.6289 22.5C34.6289 15.8121 29.188 10.3711 22.5 10.3711ZM22.5 31.1133C17.7507 31.1133 13.8867 27.2493 13.8867 22.5C13.8867 17.7507 17.7507 13.8867 22.5 13.8867C27.2493 13.8867 31.1133 17.7507 31.1133 22.5C31.1133 27.2493 27.2493 31.1133 22.5 31.1133Z" fill="black"/>
<path d="M34.8047 11.9531C35.7755 11.9531 36.5625 11.1661 36.5625 10.1953C36.5625 9.2245 35.7755 8.4375 34.8047 8.4375C33.8339 8.4375 33.0469 9.2245 33.0469 10.1953C33.0469 11.1661 33.8339 11.9531 34.8047 11.9531Z" fill="black"/>
</svg>
