<svg width="80" height="51" viewBox="0 0 80 51" fill="none" xmlns="http://www.w3.org/2000/svg">
<g clip-path="url(#clip0)">
<path opacity="0.07" d="M73.6842 0H6.31579C2.73684 0 0 2.75758 0 6.36364V44.5455C0 48.1515 2.94737 50.9091 6.31579 50.9091H73.6842C77.2632 50.9091 80 48.1515 80 44.5455V6.36364C80 2.75758 77.0526 0 73.6842 0Z" fill="black"/>
<path d="M73.6844 2.12109C76.0002 2.12109 77.8949 4.03018 77.8949 6.36352V44.5453C77.8949 46.8787 76.0002 48.7878 73.6844 48.7878H6.31599C4.00021 48.7878 2.10547 46.8787 2.10547 44.5453V6.36352C2.10547 4.03018 4.00021 2.12109 6.31599 2.12109H73.6844Z" fill="white"/>
<path d="M31.5791 40.3032C39.7181 40.3032 46.316 33.6553 46.316 25.4547C46.316 17.2541 39.7181 10.6062 31.5791 10.6062C23.4402 10.6062 16.8423 17.2541 16.8423 25.4547C16.8423 33.6553 23.4402 40.3032 31.5791 40.3032Z" fill="#EB001B"/>
<path d="M48.4209 40.3032C56.5599 40.3032 63.1578 33.6553 63.1578 25.4547C63.1578 17.2541 56.5599 10.6062 48.4209 10.6062C40.282 10.6062 33.6841 17.2541 33.6841 25.4547C33.6841 33.6553 40.282 40.3032 48.4209 40.3032Z" fill="#F79E1B"/>
<path d="M46.3157 25.4547C46.3157 20.3638 43.7893 15.9092 39.9999 13.3638C36.2104 16.1213 33.6841 20.5759 33.6841 25.4547C33.6841 30.3335 36.2104 35.0001 39.9999 37.5456C43.7893 35.0001 46.3157 30.5456 46.3157 25.4547Z" fill="#FF5F00"/>
</g>
<defs>
<clipPath id="clip0">
<rect width="80" height="50.9091" fill="white"/>
</clipPath>
</defs>
</svg>
